#!OML:ASF F:\VICON\USERDATA\INSTALL\rory3\rory3.ASF
:FULLY-SPECIFIED
:DEGREES
639
root 4.90732 16.0855 -8.70867 31.9445 -43.7489 -8.31684
lowerback -0.372357 -0.898282 -3.81889
upperback -19.9447 -1.99434 3.34347
thorax -22.388 -0.0013479 6.63739
lowerneck 0.822031 7.09348 -0.31908
upperneck 5.37531 8.74542 17.2791
head 0.623629 4.56525 5.21022
rclavicle 7.41964e-014 6.50026e-014
rhumerus -44.6236 -36.643 16.6507
rradius 17.8069
rwrist 28.5129
rhand 20.0764 -3.63839
rfingers 7.12502
rthumb 44.6062 -27.2914
lclavicle 7.41964e-014 6.50026e-014
lhumerus 68.967 18.2759 23.8392
lradius 41.6582
lwrist -19.9941
lhand 1.81158 21.7655
lfingers 7.12502
lthumb 27.3244 49.8052
rfemur 150.328 -188.248 -144.675
rtibia 33.8042
rfoot -46.283 -33.0221
rtoes 21.2223
lfemur -101.562 28.7722 -50.0656
ltibia 61.2199
lfoot 41.9901 30.3035
ltoes 8.73413
640
root 4.90467 16.0864 -8.71103 31.5318 -43.9392 -7.73389
lowerback -0.369321 -0.992914 -4.18926
upperback -19.7983 -2.18038 3.21521
thorax -22.1451 -0.0482643 6.71597
lowerneck -0.0550152 6.8686 0.366544
upperneck 6.38457 8.25887 16.5758
head 1.17825 4.42362 4.96058
rclavicle 2.78795e-014 2.3059e-014
rhumerus -43.6811 -35.137 14.1663
rradius 18.6248
rwrist 25.7656
rhand 18.7778 -2.81959
rfingers 7.12502
rthumb 43.3948 -26.9245
lclavicle 2.78795e-014 2.3059e-014
lhumerus 67.2538 18.6905 23.0867
lradius 43.8504
lwrist -19.7306
lhand 1.87695 21.7006
lfingers 7.12502
lthumb 27.3869 49.7305
rfemur 150.195 -188.713 -145.27
rtibia 34.0536
rfoot -46.9845 -32.9535
rtoes 21.824
lfemur -101.352 28.7757 -50.5008
ltibia 60.9168
lfoot 41.9983 30.8261
ltoes 9.70859
641
root 4.91464 16.0852 -8.74531 30.8427 -44.1534 -6.69122
lowerback 0.0992363 -1.2447 -5.11904
upperback -19.7319 -2.68744 3.09825
thorax -22.2867 -0.109238 7.23011
lowerneck -0.425779 6.7314 0.78077
upperneck 7.05225 7.96719 16.0718
head 1.50423 4.33089 4.77942
rclavicle 1.9133e-014 3.26007e-014
rhumerus -42.7054 -34.0309 11.6559
rradius 19.4716
rwrist 23.2676
rhand 17.8334 -1.99088
rfingers 7.12502
rthumb 42.5116 -26.4072
lclavicle 1.9133e-014 3.26007e-014
lhumerus 65.1478 19.1276 22.0888
lradius 46.27
lwrist -19.516
lhand 1.87704 21.6563
lfingers 7.12502
lthumb 27.387 49.6861
rfemur 149.801 -190.19 -146.352
rtibia 34.3278
rfoot -48.6026 -33.2892
rtoes 23.5747
lfemur -101.019 28.513 -51.1569
ltibia 60.422
lfoot 42.3658 31.1113
ltoes 10.3114
642
root 4.91553 16.0935 -8.7537 30.673 -44.2993 -6.22093
lowerback 0.0183848 -1.41239 -5.36321
upperback -19.6902 -2.95872 3.05343
thorax -22.1109 -0.208485 7.3524
lowerneck -0.556855 6.59409 0.869843
upperneck 7.50522 7.72616 15.7256
head 1.69837 4.23568 4.67996
rclavicle -3.32467e-014 -3.24019e-014
rhumerus -41.783 -32.4295 8.99044
rradius 20.4606
rwrist 20.3145
rhand 16.4086 -1.15412
rfingers 7.12502
rthumb 41.1759 -26.0143
lclavicle -3.32467e-014 -3.24019e-014
lhumerus 62.7643 19.3455 20.9426
lradius 48.7417
lwrist -19.5124
lhand 1.33866 21.2643
lfingers 7.12502
lthumb 26.8719 49.3745
rfemur 149.441 -190.498 -146.826
rtibia 34.5716
rfoot -48.9018 -33.3395
rtoes 24.0399
lfemur -101.045 28.4508 -51.7198
ltibia 60.0769
lfoot 43.0734 30.563
ltoes 9.4677
643
root 4.91114 16.1039 -8.7485 30.5518 -44.3587 -5.99873
lowerback -0.179893 -1.54785 -5.31645
upperback -19.5069 -3.12073 3.02117
thorax -21.6772 -0.328637 7.27543
lowerneck -0.806302 6.35917 0.960994
upperneck 7.73658 7.37697 15.3844
head 1.85418 4.07836 4.57881
rclavicle -1.01132e-013 -3.81667e-014
rhumerus -41.0994 -30.7696 6.31958
rradius 21.5911
rwrist 17.0462
rhand 14.5599 -0.158272
rfingers 7.12502
rthumb 39.4372 -25.5516
lclavicle -1.01132e-013 -3.81667e-014
lhumerus 60.5909 19.6456 20.0061
lradius 50.9613
lwrist -19.9481
lhand 0.0222568 20.6245
lfingers 7.12502
lthumb 25.6117 48.9222
rfemur 149.348 -190.406 -147.021
rtibia 34.7353
rfoot -48.781 -33.3708
rtoes 23.7206
lfemur -100.946 28.4812 -51.9677
ltibia 59.8602
lfoot 43.1022 30.6684
ltoes 9.6193
644
root 4.90825 16.108 -8.74647 30.3578 -44.3633 -5.81848
lowerback -0.147862 -1.61721 -5.27609
upperback -19.3798 -3.20188 3.01831
thorax -21.507 -0.385225 7.24971
lowerneck -1.01871 6.05342 0.832715
upperneck 8.17007 6.91842 15.0753
head 2.05928 3.87039 4.5242
rclavicle -2.89232e-014 -4.92986e-014
rhumerus -40.8559 -29.5516 4.44049
rradius 22.7243
rwrist 14.6246
rhand 12.5664 1.05693
rfingers 7.12502
rthumb 37.5562 -24.8617
lclavicle -2.89232e-014 -4.92986e-014
lhumerus 58.4877 19.7508 19.2405
lradius 53.1164
lwrist -20.1791
lhand -1.47312 19.9715
lfingers 7.12502
lthumb 24.1787 48.4675
rfemur 149.442 -190.593 -147.191
rtibia 34.7217
rfoot -49.0028 -33.4813
rtoes 23.7171
lfemur -100.761 28.495 -52.0202
ltibia 59.8221
lfoot 42.3076 32.0274
ltoes 12.3611
645
root 4.90755 16.1104 -8.75009 30.1593 -44.4724 -5.60492
lowerback -0.0312282 -1.49623 -5.34122
upperback -19.3977 -3.04356 3.02042
thorax -21.6438 -0.288537 7.27686
lowerneck -1.25765 5.71999 0.113971
upperneck 9.13301 6.37084 15.0221
head 2.39799 3.6341 4.65483
rclavicle 6.91771e-014 1.88845e-014
rhumerus -40.9685 -28.1983 3.39975
rradius 23.8153
rwrist 12.4943
rhand 10.5031 2.44753
rfingers 7.12502
rthumb 35.6033 -23.9655
lclavicle 6.91771e-014 1.88845e-014
lhumerus 56.3739 19.4323 19.1203
lradius 55.3681
lwrist -20.55
lhand -3.00896 19.5134
lfingers 7.12502
lthumb 22.7054 48.1975
rfemur 149.499 -190.821 -147.41
rtibia 34.6568
rfoot -49.174 -33.6176
rtoes 24.2732
lfemur -100.656 28.5464 -52.168
ltibia 59.7997
lfoot 41.5275 33.1254
ltoes 14.3948
646
root 4.90712 16.1076 -8.74999 30.5074 -44.4116 -6.12765
lowerback 0.0643001 -1.38073 -4.84324
upperback -19.4198 -2.79402 3.2194
thorax -21.7968 -0.227597 7.19446
lowerneck -1.60158 5.49584 -0.672536
upperneck 10.3637 5.92901 15.1464
head 2.82009 3.46299 4.86308
rclavicle -3.10601e-015 -1.71949e-014
rhumerus -40.9783 -26.7892 2.23699
rradius 24.9093
rwrist 10.2184
rhand 8.16927 4.09338
rfingers 7.12502
rthumb 33.388 -22.8242
lclavicle -3.10601e-015 -1.71949e-014
lhumerus 53.797 19.003 18.7727
lradius 57.6593
lwrist -20.8973
lhand -4.87692 19.04
lfingers 7.12502
lthumb 20.9117 47.9329
rfemur 149.587 -191.125 -147.034
rtibia 34.5683
rfoot -49.3526 -33.7482
rtoes 24.2696
lfemur -100.749 28.6573 -51.6842
ltibia 59.809
lfoot 41.4783 33.4867
ltoes 14.7063
647
root 4.90779 16.1083 -8.75355 30.6717 -44.3325 -6.38596
lowerback 0.127912 -1.38576 -4.45329
upperback -19.3573 -2.7283 3.35433
thorax -21.7718 -0.252753 7.11555
lowerneck -0.983565 5.07158 -1.07614
upperneck 10.2146 5.47873 14.3998
head 2.71817 3.17031 4.67017
rclavicle -3.43028e-014 -5.64051e-014
rhumerus -41.1132 -26.1661 1.11586
rradius 25.9704
rwrist 8.33573
rhand 6.11174 5.88325
rfingers 7.12502
rthumb 31.4298 -21.4354
lclavicle -3.43028e-014 -5.64051e-014
lhumerus 51.1519 18.7728 18.5911
lradius 59.972
lwrist -21.4307
lhand -6.39411 18.4014
lfingers 7.12502
lthumb 19.4535 47.4483
rfemur 149.633 -191.365 -146.849
rtibia 34.4981
rfoot -49.4693 -33.9506
rtoes 24.1473
lfemur -100.773 28.6867 -51.4467
ltibia 59.7946
lfoot 41.3593 33.7825
ltoes 14.9324
648
root 4.90529 16.1094 -8.75528 30.5829 -44.3501 -6.26958
lowerback 0.0531129 -1.43975 -4.32207
upperback -19.2165 -2.76957 3.36846
thorax -21.5145 -0.310934 7.04094
lowerneck -0.768449 5.47076 -0.799633
upperneck 8.369 6.24826 14.3283
head 2.0889 3.47664 4.55287
rclavicle -3.87009e-014 7.06183e-014
rhumerus -41.3276 -25.912 -0.0327427
rradius 26.8657
rwrist 6.64844
rhand 3.86159 7.78771
rfingers 7.12502
rthumb 29.2835 -19.9269
lclavicle -3.87009e-014 7.06183e-014
lhumerus 48.6489 18.6656 18.6451
lradius 62.144
lwrist -22.3934
lhand -7.81127 17.8298
lfingers 7.12502
lthumb 18.0904 47.0085
rfemur 149.675 -191.25 -146.909
rtibia 34.4318
rfoot -49.1879 -34.0872
rtoes 23.6162
lfemur -100.787 28.7109 -51.6639
ltibia 59.8018
lfoot 41.2003 33.4046
ltoes 14.0665
649
root 4.90196 16.1104 -8.7527 30.5998 -44.3724 -6.2032
lowerback -0.0862726 -1.51687 -4.21369
upperback -19.0923 -2.83858 3.43941
thorax -21.2281 -0.372516 7.04783
lowerneck -1.70309 4.69326 -1.62317
upperneck 11.7673 4.86134 13.7239
head 3.3541 2.90197 4.60819
rclavicle 5.142e-014 1.58655e-014
rhumerus -41.5189 -25.8514 -1.12783
rradius 27.62
rwrist 5.24458
rhand 1.48073 9.96916
rfingers 7.12502
rthumb 27.0079 -18.12
lclavicle 5.142e-014 1.58655e-014
lhumerus 46.1204 18.5365 18.6982
lradius 63.8969
lwrist -23.5433
lhand -10.1397 17.0048
lfingers 7.12502
lthumb 15.8491 46.3762
rfemur 149.641 -191.169 -146.959
rtibia 34.4257
rfoot -48.7581 -34.3281
rtoes 22.7224
lfemur -100.878 28.7036 -51.8979
ltibia 59.8181
lfoot 41.3973 32.7384
ltoes 12.9719
650
root 4.89803 16.1133 -8.74542 30.6857 -44.3009 -6.1778
lowerback -0.617228 -1.60546 -4.039
upperback -18.6012 -2.88205 3.56315
thorax -21.0166 -0.420696 7.08852
lowerneck -2.14436 4.54552 -2.32848
upperneck 12.374 4.61278 13.8961
head 3.60243 2.79238 4.80361
rclavicle 5.10628e-015 2.33572e-015
rhumerus -41.7325 -26.018 -1.98404
rradius 28.2452
rwrist 4.19201
rhand -0.959376 12.2737
rfingers 7.12502
rthumb 24.6711 -16.1559
lclavicle 5.10628e-015 2.33572e-015
lhumerus 43.4886 18.3885 18.8297
lradius 65.6656
lwrist -24.2867
lhand -12.7187 16.1472
lfingers 7.12502
lthumb 13.3644 45.6986
rfemur 149.569 -190.927 -146.941
rtibia 34.4352
rfoot -48.6485 -34.1848
rtoes 22.8531
lfemur -100.989 28.6266 -52.0468
ltibia 59.8655
lfoot 41.3457 32.9169
ltoes 13.6459
651
root 4.89491 16.1116 -8.74068 30.718 -44.2055 -6.10044
lowerback -0.779829 -1.5841 -3.86085
upperback -18.4816 -2.81645 3.54445
thorax -20.7348 -0.440559 6.92884
lowerneck -2.81605 4.18174 -2.45911
upperneck 13.2206 4.07936 13.4325
head 4.0256 2.5506 4.7119
rclavicle 5.86042e-014 5.46161e-014
rhumerus -42.3527 -26.2588 -2.6645
rradius 28.8261
rwrist 3.31035
rhand -3.61905 14.2781
rfingers 7.12502
rthumb 22.1197 -14.4766
lclavicle 5.86042e-014 5.46161e-014
lhumerus 41.1804 18.1641 19.1405
lradius 67.4789
lwrist -24.7641
lhand -14.5738 15.7595
lfingers 7.12502
lthumb 11.5758 45.4199
rfemur 149.452 -190.643 -146.897
rtibia 34.4171
rfoot -48.3181 -34.6428
rtoes 22.3305
lfemur -101.095 28.5033 -52.2144
ltibia 59.935
lfoot 40.9411 33.4666
ltoes 14.7498
652
root 4.8924 16.1094 -8.73457 30.7854 -44.2023 -6.09891
lowerback -0.925864 -1.59544 -3.64348
upperback -18.4031 -2.79341 3.58405
thorax -20.519 -0.475623 6.83098
lowerneck -3.25285 3.79136 -2.2101
upperneck 14.0631 3.58519 12.2403
head 4.4325 2.29481 4.31788
rclavicle -1.49089e-016 -1.67973e-014
rhumerus -42.7225 -26.3718 -3.57088
rradius 29.3395
rwrist 2.46042
rhand -6.28538 15.999
rfingers 7.12502
rthumb 19.558 -13.0373
lclavicle -1.49089e-016 -1.67973e-014
lhumerus 38.6514 17.8515 19.421
lradius 68.952
lwrist -25.249
lhand -16.5603 15.2474
lfingers 7.12502
lthumb 9.65959 45.006
rfemur 149.355 -190.534 -146.843
rtibia 34.3943
rfoot -47.5565 -35.6694
rtoes 19.9384
lfemur -101.192 28.4402 -52.3387
ltibia 60.0316
lfoot 40.1255 34.1635
ltoes 16.4434
653
root 4.88734 16.1157 -8.71828 30.8088 -44.0999 -6.11073
lowerback -1.19881 -1.75874 -3.22631
upperback -18.375 -2.94172 3.83563
thorax -20.2575 -0.601948 6.89654
lowerneck -2.89023 3.6352 -2.86343
upperneck 14.3131 3.48785 11.6076
head 4.45143 2.17424 4.22314
rclavicle -5.33737e-014 -2.28602e-014
rhumerus -42.3093 -25.7077 -5.08267
rradius 29.785
rwrist 1.40388
rhand -8.94161 17.518
rfingers 7.12502
rthumb 17.0026 -11.7579
lclavicle -5.33737e-014 -2.28602e-014
lhumerus 35.6321 17.7263 19.8251
lradius 70.2131
lwrist -25.6064
lhand -18.9033 14.001
lfingers 7.12502
lthumb 7.39846 43.8516
rfemur 149.469 -190.156 -146.792
rtibia 34.4008
rfoot -47.7339 -34.9325
rtoes 20.5782
lfemur -101.166 28.3917 -52.4718
ltibia 60.1228
lfoot 38.9187 35.2757
ltoes 19.151
